<svg xmlns="http://www.w3.org/2000/svg" viewBox="0 0 454.28 346.6"><defs><style>.cls-1{fill:none;stroke:#000;stroke-linecap:round;stroke-miterlimit:10;stroke-width:20px;}</style></defs><title>asteroid</title><g id="Layer_2" data-name="Layer 2"><g id="Layer_1-2" data-name="Layer 1"><path d="M364.07,152.5l-78.93,50.67c-4.85,2.54-10.53,2-13.85-1.2-4.43-4.22-4.45-12.8,1.48-18.08L330,147.18c8.67-4.61,10.5-14.52,7.08-19.17-3.26-4.44-12.53-5.76-19.59.16l-83.42,53a12.35,12.35,0,0,1-14.24-19.72L340.23,84.81c9.91-5.71,12.88-15.67,10.19-19.93s-13.21-5.92-22.69.92l-86,55.08a13.33,13.33,0,0,1-6.93,2,11,11,0,0,1-9-4.15c-3.65-5-1.84-13.87,5.48-17.53l55.89-35.07c7.48-3.44,10-12.27,6.57-18.08-2.79-4.7-9.25-7-15.34-4.93C241.06,66.89,78.77,170.84,35,199A76.12,76.12,0,0,0,12.07,304.17l4.65,7.24a76.52,76.52,0,0,0,105.73,23.06l146.13-93.81.07.13,107.92-69.28C398.35,157.53,386,138.44,364.07,152.5ZM83.91,320.87a57,57,0,1,1,57-57A57,57,0,0,1,83.91,320.87Z"/><line class="cls-1" x1="301.94" y1="247.23" x2="372.66" y2="200.68"/><line class="cls-1" x1="366.4" y1="110.26" x2="429.06" y2="69.08"/><line class="cls-1" x1="83.51" y1="142.49" x2="146.17" y2="101.31"/><line class="cls-1" x1="320.74" y1="29.69" x2="350.28" y2="10"/><line class="cls-1" x1="412.95" y1="135.33" x2="444.28" y2="114.74"/></g></g></svg>