<svg xmlns="http://www.w3.org/2000/svg" viewBox="0 0 297.75 425.5"><defs><style>.cls-1,.cls-2,.cls-3{fill:none;stroke:#000;stroke-miterlimit:10;}.cls-1,.cls-3{stroke-width:12px;}.cls-2{stroke-width:17px;}.cls-3{stroke-linecap:round;}</style></defs><title>bacteria2</title><g id="Layer_2" data-name="Layer 2"><g id="Layer_1-2" data-name="Layer 1"><path class="cls-1" d="M167.09,374.4a108.15,108.15,0,0,1-35.3,0C123,372.92,94,367.58,71.84,342.46,54,322.19,49.46,299.18,47.74,290.35c-.65-3.35-1.05-5.84-1.45-9.39-1.16-10.4-.77-21.34-.79-53.36,0-63.56-3.58-70.79,2.24-92.45,3.81-14.17,9.2-33.33,25.78-51.55,5.71-6.28,25.74-26.71,58.27-32.5a106.3,106.3,0,0,1,35.3,0c8.72,1.44,36.56,6.42,58.27,29.14,16.85,17.63,21.5,37.05,25.77,54.91,5.14,21.49,2.07,26.7,2.24,86.28.13,44.56,1.88,50.79-2.24,68.92-3.79,16.69-8,35.26-23.53,52.67C205.66,367.62,176.35,372.87,167.09,374.4Z"/><rect class="cls-2" x="66.23" y="70.15" width="168.09" height="284.63" rx="84.04"/><path class="cls-3" d="M149.44,48a19,19,0,0,1-3.37-10.64c.12-5.94,3.53-8.63,5.05-14.57.91-3.58,1.34-9.09-1.68-16.81"/><path class="cls-3" d="M149.44,419.5a19,19,0,0,1-3.37-10.65c.12-5.93,3.53-8.62,5.05-14.56.91-3.58,1.34-9.1-1.68-16.81"/><path class="cls-3" d="M198.74,58.17a18.93,18.93,0,0,1,2.67-10.84c3.18-5,7.49-5.53,11.89-9.81,2.64-2.58,5.88-7.07,7.31-15.23"/><path class="cls-3" d="M86.2,407.24a19.07,19.07,0,0,1,2.53-10.88c3.12-5.05,7.42-5.63,11.76-10,2.6-2.61,5.78-7.14,7.11-15.32"/><path class="cls-3" d="M104.61,58.11A23.76,23.76,0,0,0,102.93,48c-2.4-5.83-6.12-7.7-10.64-14a48.54,48.54,0,0,1-6.17-11.76"/><path class="cls-3" d="M207.71,407.17A23.88,23.88,0,0,0,206,397.09c-2.4-5.83-6.13-7.7-10.65-14a48.68,48.68,0,0,1-6.16-11.77"/><path class="cls-3" d="M74.92,347.78a39,39,0,0,1-11.21,7.29c-5.83,2.46-8.85,2-12.89,4.48-2.81,1.73-6.43,5.09-9,12.32"/><path class="cls-3" d="M49.73,306.18a39,39,0,0,1-12,5.94c-6.07,1.78-9,1-13.32,3-3,1.39-7,4.31-10.33,11.21"/><path class="cls-3" d="M287.75,105.45h0c-7.32-3-12-2.34-14.89-1.2-4.69,1.85-5.8,5.33-10.93,8.37a25.81,25.81,0,0,1-14.3,3.27"/><path class="cls-3" d="M265.26,61.52a38.83,38.83,0,0,1-11.85,6.18c-6,1.9-9,1.14-13.25,3.23-3,1.45-6.89,4.45-10.1,11.41"/><path class="cls-3" d="M75.18,80.41c-5.54-.84-12.24-2.76-16.25-7.52-2.69-3.21-2.43-5.62-5-9.69-2.09-3.34-6-7.63-13.8-11.49"/><path class="cls-3" d="M250.29,384.76a36.27,36.27,0,0,1-10.65-13.45c-1.75-3.94-1.79-6.22-3.92-9.52-3.2-5-8.09-7.56-11.76-9"/><path class="cls-3" d="M290.07,208.61a19.07,19.07,0,0,0-9.52-1.71c-5.05.51-6.87,3.17-12.33,4.28a25.26,25.26,0,0,1-11.21-.43"/><path class="cls-3" d="M44.3,213.49c-5.86-3.79-10.37-4.06-13.35-3.65-5,.69-7,3.44-11.78,3.65-5,.22-9.17-2.6-11.77-4.86"/><path class="cls-3" d="M43.92,260.38c-6.84-1.39-11.14,0-13.77,1.48-4.37,2.45-5.29,5.77-9.63,7.69-4.61,2-9.49.93-12.74-.24"/><path class="cls-3" d="M291.75,273.82a44,44,0,0,0-9.52-3.92c-7-2-10.4-1-15.69-2.8a26.52,26.52,0,0,1-11.21-7.85"/><path class="cls-3" d="M52.43,114.93a44.06,44.06,0,0,0-8.88-5.21c-6.7-2.93-10.16-2.41-15.15-5a26.51,26.51,0,0,1-10-9.33"/><path class="cls-3" d="M282.15,326.16a44.06,44.06,0,0,0-8.88-5.21c-6.7-2.93-10.16-2.41-15.15-5a26.5,26.5,0,0,1-10-9.33"/><path class="cls-3" d="M40.18,156.16a27,27,0,0,0-5-1.68c-6.53-1.48-10.49.2-14.57,0-3.49-.18-8.54-1.81-14.57-9"/><path class="cls-3" d="M290.27,148.45a27.57,27.57,0,0,0-5.16,1.28c-6.31,2.23-8.76,5.77-12.32,7.77-3,1.72-8.18,3-17.1.2"/><circle class="cls-3" cx="126.18" cy="148.88" r="29.7"/><path class="cls-3" d="M210.49,243.69c2.18,5.48,9.57,26,.55,47-.66,1.53-6.81,15.36-20.5,23.73-7.59,4.64-11.54,4-13.33,3.4-5.31-1.65-7.72-7.3-8.07-8.16-5.08-12.4,9.89-21.51,6-36.72-.35-1.37-2.6-9.63-8.38-11.11s-11.89,4.72-13,5.87c-13.79,14.56-.29,38-12.57,46.68a17.89,17.89,0,0,1-12.07,3.05A16.24,16.24,0,0,1,120,313c-9.7-10.21,11.93-33.09,2-50.27A21.74,21.74,0,0,0,108,253c-5-1.06-10.75-.28-14.43,2.19-8.43,5.66-10.31,23.08-1.1,41.52"/><path class="cls-3" d="M201,198.74a42.56,42.56,0,0,1-7.84-14.57c-1.38-4.51-4.79-15.68.56-24.09,4-6.33,8.68-4.25,11.48-10,4.46-9.11-3.57-22.11-8.11-27.46a31.46,31.46,0,0,0-6.55-5.87,30.48,30.48,0,0,0-10.84-4.44"/></g></g></svg>