<svg xmlns="http://www.w3.org/2000/svg" viewBox="0 0 192.9 427.5"><defs><style>.cls-1,.cls-2{fill:none;stroke:#000;stroke-linecap:round;stroke-miterlimit:10;}.cls-1{stroke-width:17px;}.cls-2{stroke-width:12px;}</style></defs><title>rocket1</title><g id="Layer_2" data-name="Layer 2"><g id="Layer_1-2" data-name="Layer 1"><path class="cls-1" d="M117.35,126.82V406.08H75.1V127.17Z"/><path class="cls-1" d="M43.76,406.26H8.5V216.73a18.93,18.93,0,0,1,3.06-10.31L23,188.78a7,7,0,0,1,11.43-.26l12.47,17.4a19.86,19.86,0,0,1,3.75,11.59V406.26Z"/><path class="cls-1" d="M177.53,406.26H142.27V216.73a18.93,18.93,0,0,1,3.06-10.31l11.42-17.64a7,7,0,0,1,11.44-.26l12.47,17.4a19.92,19.92,0,0,1,3.74,11.59V406.26Z"/><path class="cls-1" d="M116.23,126.82l5.93-11.49V60.68a36,36,0,0,0-3.8-16.23Q110.67,29.3,103,14.13C99.1,6.5,89.63,6.66,86,14.42L71.67,44.48a37.55,37.55,0,0,0-3.54,16v54.83l7,11.84"/><polygon points="48.34 427.5 9.87 427.5 15.37 414.62 43.76 414.62 48.34 427.5"/><polygon points="115.06 427.5 76.6 427.5 82.09 414.62 110.48 414.62 115.06 427.5"/><polygon points="182.11 427.5 143.65 427.5 149.14 414.62 177.53 414.62 182.11 427.5"/><line class="cls-1" x1="8.5" y1="411.13" x2="50.63" y2="411.13"/><line class="cls-1" x1="75.22" y1="411.13" x2="117.35" y2="411.13"/><line class="cls-1" x1="142.27" y1="411.13" x2="184.4" y2="411.13"/><line class="cls-2" x1="8.15" y1="225.38" x2="184.75" y2="225.71"/><line class="cls-2" x1="10.07" y1="375.09" x2="184.75" y2="375.09"/><path d="M68.35,113.41h54l-7.79,15-37.55-.66Z"/></g></g></svg>