<svg xmlns="http://www.w3.org/2000/svg" viewBox="0 0 261.95 436"><defs><style>.cls-1,.cls-2{fill:none;stroke:#000;stroke-miterlimit:10;}.cls-1{stroke-width:17px;}.cls-2{stroke-width:12px;}</style></defs><title>rocket2</title><g id="Layer_2" data-name="Layer 2"><g id="Layer_1-2" data-name="Layer 1"><path class="cls-1" d="M84.92,367.31l.06,23h0L99.2,416.78a2.07,2.07,0,0,1-1.82,3.05H36.76a1.58,1.58,0,0,1-1.4-2.32q7.17-13.59,14.36-27.16,0-13.2-.07-26.41"/><path class="cls-1" d="M49.65,309.5v-154a3.16,3.16,0,0,1,.26-1.26q7.34-17.19,14.68-34.37a2.9,2.9,0,0,1,5.38,0l14.69,34.37a3.16,3.16,0,0,1,.26,1.26l-.54,98.76"/><path class="cls-1" d="M212.67,364v26.79q7.32,13.37,14.65,26.74a1.57,1.57,0,0,1-1.38,2.32H164.19a1.36,1.36,0,0,1-1.2-2l14.83-27.18-.42-23.28"/><path class="cls-1" d="M177.59,250.67q-.09-47.58-.19-95.17a3.16,3.16,0,0,1,.26-1.26l14.69-34.37a2.9,2.9,0,0,1,5.38,0q7.34,17.19,14.69,34.37a3.33,3.33,0,0,1,.25,1.26V309.81"/><path class="cls-1" d="M165.22,369.3h.05l86.57-9.05c-4.44-22.91-12.8-33.73-19.71-39.37-4.95-4.05-7.08-3.74-15.29-9.27-3.55-2.39-17.58-11.2-26.53-25.22-8.68-13.59-9.82-24.74-14.7-42.2A232.15,232.15,0,0,0,164,212.07c-.13-.35-.27-.69-.42-1q-3.3-7.64-7.17-15.67c-.47-1-.94-2-1.43-2.94"/><path class="cls-1" d="M97.76,368.74H97.7l-87.57-8.57c4.46-22.91,12.85-33.73,19.79-39.37,5-4.05,7.1-3.73,15.35-9.27,3.56-2.38,17.64-11.19,26.63-25.21,8.72-13.6,9.85-24.75,14.76-42.22h0a238.52,238.52,0,0,1,14.93-39.28c1.9-4,3.55-7.25,4.69-9.45.12-.23.23-.45.34-.65h.2l.15-.31h0"/><path d="M91.38,436H43.79A3.1,3.1,0,0,1,41,431.49l5.15-10.1a3.11,3.11,0,0,1,2.76-1.7H86.67a3.11,3.11,0,0,1,2.82,1.79l4.71,10.1A3.11,3.11,0,0,1,91.38,436Z"/><path d="M218.36,436H172.22a3.55,3.55,0,0,1-3.17-5.17l4.68-9.2a3.55,3.55,0,0,1,3.17-1.94h37.17a3.58,3.58,0,0,1,3.23,2.05q2.13,4.61,4.28,9.2A3.56,3.56,0,0,1,218.36,436Z"/><path d="M149.88,419.51h-38.5c-2.22,0-3.66-3.55-2.65-6.54l3.91-11.61c.5-1.51,1.53-2.46,2.64-2.46h31c1.16,0,2.2,1,2.69,2.6q1.8,5.81,3.58,11.61C153.49,416.09,152.05,419.51,149.88,419.51Z"/><path class="cls-1" d="M154.68,336.28V224.84a151.57,151.57,0,0,0-2.89-29.48c-.2-1-.4-2-.62-2.94a151.44,151.44,0,0,0-9.14-28.2l-8.69-19.91a2.45,2.45,0,0,0-4.48,0l-8,18a158.44,158.44,0,0,0-10.42,32.13h0c-.07.32-.13.64-.2,1a159,159,0,0,0-3.2,31.73V337"/><path d="M177.46,188.55v62l-24.54-51c-12.35-46.88-19.68-55.59-24.06-55.2-1.63.15-4.05,1.67-13.68,28.78-4.69,13.2-8.14,24.18-10.38,31.61-2.56,4.86-5.11,10.21-7.55,16a199.5,199.5,0,0,0-8,23.12Q87.11,216.26,85,188.55A338.24,338.24,0,0,1,116.4,9.32a16.44,16.44,0,0,1,29.64,0,338.37,338.37,0,0,1,21.51,58.21A340.41,340.41,0,0,1,177.46,188.55Z"/><path class="cls-1" d="M125.15,328.1H138a23.09,23.09,0,0,1,23.09,23.09v45.38a0,0,0,0,1,0,0H101.59a0,0,0,0,1,0,0V351.66A23.56,23.56,0,0,1,125.15,328.1Z"/><line class="cls-2" x1="130.99" y1="396.57" x2="131.34" y2="322.01"/></g></g></svg>