<svg xmlns="http://www.w3.org/2000/svg" viewBox="0 0 329.68 428"><defs><style>.cls-1,.cls-2,.cls-3{fill:none;stroke:#000;stroke-miterlimit:10;}.cls-1,.cls-2{stroke-width:17px;}.cls-2,.cls-3{stroke-linecap:round;}.cls-3{stroke-width:20px;}</style></defs><title>shuttle</title><g id="Layer_2" data-name="Layer 2"><g id="Layer_1-2" data-name="Layer 1"><path class="cls-1" d="M121.65,300.7V108.91C129,50.52,148.12,8.7,165.75,8.5S204.08,50,213.16,108.91V301.52"/><path class="cls-1" d="M214.87,375.22l104.61-18.1c-.06-.27-3.57-36.56-20-64.57a86.8,86.8,0,0,0-8-11.82c-7.55-9.37-14.8-13.77-23-22.62-31.7-34-18.76-70-50.14-144.17-3-7.16-6.41-15-6.41-15-.43-1-.87-2-1.3-3"/><path class="cls-1" d="M123.05,97.23h0c-.36.81-.71,1.62-1.07,2.44-2.1,4.83-4.17,9.74-6.21,14.6-30,71.36-16.26,103.52-46.31,139.07C58.75,266,50.93,269.11,42.53,278.71a137.5,137.5,0,0,0-9.36,13.5,165.78,165.78,0,0,0-15.44,34.07,247.79,247.79,0,0,0-7.67,29.13l109.88,19.28"/><path class="cls-1" d="M155.74,305.09c-4.4-6.55-11.22-10.75-18.87-10.75-13.3,0-24.09,12.66-24.09,28.27v44.12h44.47"/><path class="cls-1" d="M175.89,306.43a23.85,23.85,0,0,1,20.52-12.09,23.36,23.36,0,0,1,17,7.42,26,26,0,0,1,7,17.91v47.06H174.65"/><path d="M155.74,371.6v31.46H116.56a2.63,2.63,0,0,1-2.79-3.05l7.29-31.25a2.81,2.81,0,0,1,2.8-2H155.4A11.88,11.88,0,0,0,155.74,371.6Z"/><path d="M217.28,403.06H176.16v-30.9a12,12,0,0,0,.44-5.43h34.3a3.19,3.19,0,0,1,1.83.59,2.45,2.45,0,0,1,1,1.5l6.4,31.24A2.66,2.66,0,0,1,217.28,403.06Z"/><path class="cls-2" d="M179.66,393.35c0,5.42-3.54,13.4-5.63,21.3-1.66,6.26-8.94,6.53-10.92.4q-3.45-10.76-6.91-21.51a8.56,8.56,0,0,1-.39-2.52V301.88c1-1.12,5-5.64,11.43-5.94,7.18-.34,11.87,4.9,12.7,5.85C179.79,342.27,179.53,373.67,179.66,393.35Z"/><line class="cls-1" x1="319.34" y1="338.63" x2="220.44" y2="338.63"/><line class="cls-1" x1="112.78" y1="338.63" x2="13.88" y2="338.63"/><path class="cls-3" d="M151.76,89.37a23.9,23.9,0,0,1,31.29,0"/></g></g></svg>