<svg xmlns="http://www.w3.org/2000/svg" viewBox="0 0 441.86 422"><defs><style>.cls-1{fill:none;stroke:#000;stroke-linecap:round;stroke-miterlimit:10;stroke-width:12px;}</style></defs><title>solarsystem</title><g id="Layer_2" data-name="Layer 2"><g id="Layer_1-2" data-name="Layer 1"><circle cx="229.72" cy="211.56" r="71.16"/><path class="cls-1" d="M296.66,112.18a119.62,119.62,0,1,1-79.89-17.81"/><path class="cls-1" d="M368.88,300.59A164.16,164.16,0,1,0,307,355.82"/><path class="cls-1" d="M29.32,248.5a203.81,203.81,0,0,0,55.16,106c79.26,80.85,209,82.14,289.89,2.88,3.13-3.07,6.13-6.19,9-9.4h0a207.56,207.56,0,0,0,13.18-16.25h0c58.06-79.51,51.86-191.61-19.34-264.23C298-13.36,168.21-14.65,87.36,64.61A203.87,203.87,0,0,0,30.81,166.2"/><circle cx="22.47" cy="207.18" r="22.47"/><circle cx="258.4" cy="95.06" r="22.47"/><circle cx="341.85" cy="332.64" r="22.47"/></g></g></svg>