<svg xmlns="http://www.w3.org/2000/svg" viewBox="0 0 423.25 394.21"><defs><style>.cls-1,.cls-2{fill:none;stroke:#000;stroke-miterlimit:10;}.cls-1{stroke-linecap:round;stroke-width:20px;}.cls-2{stroke-width:17px;}</style></defs><title>telescope</title><g id="Layer_2" data-name="Layer 2"><g id="Layer_1-2" data-name="Layer 1"><line class="cls-1" x1="222.46" y1="162.18" x2="128.89" y2="364.39"/><line class="cls-1" x1="236.04" y1="162.18" x2="329.62" y2="364.39"/><line class="cls-1" x1="229.65" y1="163.34" x2="229.65" y2="384.21"/><path class="cls-2" d="M308.77,113.72l-60.32,14.51L204.09,138.9l-61.91,14.89a5.31,5.31,0,0,1-6.41-3.92l-1.1-4.58L123.74,99.87l-2.18-9.09a5.31,5.31,0,0,1,3.92-6.41L292.07,44.3"/><path class="cls-2" d="M308.86,21.49h95.65a0,0,0,0,1,0,0v85.17a0,0,0,0,1,0,0H308.86a10.52,10.52,0,0,1-10.52-10.52V32a10.52,10.52,0,0,1,10.52-10.52Z" transform="translate(-5.24 83.96) rotate(-13.52)"/><path class="cls-2" d="M123.74,99.87,51.46,117.26A2.23,2.23,0,0,0,49.82,120l1.89,7.86,6,25.12,2,8.1a2.23,2.23,0,0,0,2.69,1.65l72.28-17.39"/><polyline class="cls-2" points="51.71 127.81 13.04 137.11 19.09 162.23 57.75 152.93"/><path d="M259.66,151.2a29.14,29.14,0,1,1-55.57-12.3l44.36-10.67A29.08,29.08,0,0,1,259.66,151.2Z"/><line class="cls-1" x1="10" y1="127.49" x2="20.86" y2="172.26"/></g></g></svg>